<svg xmlns="http://www.w3.org/2000/svg" x="0px" y="0px"
width="100" height="100"
viewBox="0,0,256,256"
style="fill:#000000;">
<g fill-opacity="0" fill="#dddddd" fill-rule="nonzero" stroke="none" stroke-width="1" stroke-linecap="butt" stroke-linejoin="miter" stroke-miterlimit="10" stroke-dasharray="" stroke-dashoffset="0" font-family="none" font-weight="none" font-size="none" text-anchor="none" style="mix-blend-mode: normal"><path d="M0,256v-256h256v256z" id="bgRectangle"></path></g><g fill="#ffffff" fill-rule="nonzero" stroke="none" stroke-width="1" stroke-linecap="butt" stroke-linejoin="miter" stroke-miterlimit="10" stroke-dasharray="" stroke-dashoffset="0" font-family="none" font-weight="none" font-size="none" text-anchor="none" style="mix-blend-mode: normal"><g transform="scale(2.56,2.56)"><path d="M20,22c-3.85433,0 -7,3.14567 -7,7v42c0,3.85433 3.14567,7 7,7h60c3.85433,0 7,-3.14567 7,-7v-42c0,-3.85433 -3.14567,-7 -7,-7zM20,24h60c2.76709,0 4.98948,2.21598 5,4.98047c-0.00497,1.42918 -0.68812,2.76821 -1.8418,3.61328l-33.1582,24.28711l-33.1582,-24.28711c-1.15368,-0.84507 -1.83682,-2.18411 -1.8418,-3.61328c0.00748,-1.96649 1.1452,-3.63807 2.79102,-4.44922l31.91406,23.37305c0.17568,0.12831 0.41416,0.12831 0.58984,0l16.38477,-12c0.22329,-0.16288 0.27226,-0.47593 0.10938,-0.69922c-0.16288,-0.22329 -0.47593,-0.27226 -0.69922,-0.10937l-16.08984,11.78516l-31.07422,-22.75976c0.34637,-0.07517 0.70441,-0.12109 1.07422,-0.12109zM76.51758,27.58789c-0.11263,-0.00231 -0.22275,0.03347 -0.3125,0.10156l-2,1.46289c-0.15231,0.10224 -0.23642,0.27968 -0.21913,0.46231c0.01729,0.18263 0.13319,0.34113 0.30199,0.41298c0.16879,0.07185 0.36338,0.0455 0.50699,-0.06865l2,-1.46289c0.17613,-0.12455 0.25254,-0.34801 0.18953,-0.55433c-0.063,-0.20632 -0.25121,-0.34897 -0.46688,-0.35388zM72.51758,30.51563c-0.01695,-0.00021 -0.0339,0.00044 -0.05078,0.00195c-0.09495,0.0076 -0.18575,0.04216 -0.26172,0.09961l-4,2.92969c-0.15231,0.10224 -0.23641,0.27968 -0.21912,0.46231c0.01729,0.18263 0.13319,0.34113 0.30198,0.41298c0.16879,0.07185 0.36337,0.0455 0.50698,-0.06864l4,-2.92969c0.17613,-0.12455 0.25254,-0.34801 0.18953,-0.55433c-0.063,-0.20632 -0.25121,-0.34897 -0.46688,-0.35388zM15,32.11523c0.34114,0.48698 0.75805,0.9248 1.25,1.28516c0,0.00065 0,0.0013 0,0.00195l33.45508,24.50195c0.17568,0.12831 0.41416,0.12831 0.58984,0l33.45508,-24.50195c0,-0.00065 0,-0.0013 0,-0.00195c0.49195,-0.36034 0.90886,-0.79818 1.25,-1.28516v38.88477c0,2.77367 -2.22633,5 -5,5h-60c-2.77367,0 -5,-2.22633 -5,-5zM22.49219,39.99219c-0.13261,0.00207 -0.25896,0.05673 -0.35127,0.15197c-0.0923,0.09523 -0.14299,0.22324 -0.14092,0.35584v33c-0.00255,0.18032 0.09219,0.34804 0.24794,0.43894c0.15575,0.0909 0.34838,0.0909 0.50413,0c0.15575,-0.0909 0.25049,-0.25863 0.24794,-0.43894v-33c0.00212,-0.13532 -0.0507,-0.26572 -0.1464,-0.36141c-0.0957,-0.0957 -0.22609,-0.14852 -0.36141,-0.1464zM77.49219,39.99219c-0.13261,0.00207 -0.25896,0.05673 -0.35127,0.15197c-0.0923,0.09523 -0.14299,0.22324 -0.14092,0.35584v21c-0.00255,0.18032 0.09219,0.34804 0.24794,0.43894c0.15575,0.0909 0.34838,0.0909 0.50413,0c0.15575,-0.0909 0.25049,-0.25863 0.24794,-0.43894v-21c0.00212,-0.13532 -0.0507,-0.26572 -0.1464,-0.36141c-0.0957,-0.0957 -0.22609,-0.14852 -0.36141,-0.1464zM77.49219,63.99219c-0.13261,0.00207 -0.25896,0.05673 -0.35127,0.15197c-0.0923,0.09523 -0.14299,0.22324 -0.14092,0.35584v5c-0.00255,0.18032 0.09219,0.34804 0.24794,0.43894c0.15575,0.0909 0.34838,0.0909 0.50413,0c0.15575,-0.0909 0.25049,-0.25863 0.24794,-0.43894v-5c0.00212,-0.13532 -0.0507,-0.26572 -0.1464,-0.36141c-0.0957,-0.0957 -0.22609,-0.14852 -0.36141,-0.1464zM77.49219,71.99219c-0.13261,0.00207 -0.25896,0.05673 -0.35127,0.15197c-0.0923,0.09523 -0.14299,0.22324 -0.14092,0.35584v1c-0.00255,0.18032 0.09219,0.34804 0.24794,0.43894c0.15575,0.0909 0.34838,0.0909 0.50413,0c0.15575,-0.0909 0.25049,-0.25863 0.24794,-0.43894v-1c0.00212,-0.13532 -0.0507,-0.26572 -0.1464,-0.36141c-0.0957,-0.0957 -0.22609,-0.14852 -0.36141,-0.1464z"></path></g></g>
</svg>