<svg xmlns="http://www.w3.org/2000/svg" x="0px" y="0px"
width="100" height="100"
viewBox="0,0,256,256"
style="fill:#000000;">
<g fill-opacity="0" fill="#dddddd" fill-rule="nonzero" stroke="none" stroke-width="1" stroke-linecap="butt" stroke-linejoin="miter" stroke-miterlimit="10" stroke-dasharray="" stroke-dashoffset="0" font-family="none" font-weight="none" font-size="none" text-anchor="none" style="mix-blend-mode: normal"><path d="M0,256v-256h256v256z" id="bgRectangle"></path></g><g fill="#ffffff" fill-rule="nonzero" stroke="none" stroke-width="1" stroke-linecap="butt" stroke-linejoin="miter" stroke-miterlimit="10" stroke-dasharray="" stroke-dashoffset="0" font-family="none" font-weight="none" font-size="none" text-anchor="none" style="mix-blend-mode: normal"><g transform="scale(2.56,2.56)"><path d="M29,17c-6.61547,0 -12,5.38453 -12,12v42c0,6.61547 5.38453,12 12,12h42c6.61547,0 12,-5.38453 12,-12v-42c0,-6.61547 -5.38453,-12 -12,-12zM29,19h5v7.5c-0.00255,0.18032 0.09219,0.34804 0.24794,0.43894c0.15575,0.0909 0.34838,0.0909 0.50413,0c0.15575,-0.0909 0.25049,-0.25863 0.24794,-0.43894v-7.5h36c5.53453,0 10,4.46547 10,10v9h-10.5c-0.18032,-0.00255 -0.34804,0.09219 -0.43894,0.24794c-0.0909,0.15575 -0.0909,0.34838 0,0.50413c0.0909,0.15575 0.25863,0.25049 0.43894,0.24794h10.5v32c0,5.53453 -4.46547,10 -10,10h-42c-5.53453,0 -10,-4.46547 -10,-10v-32h3.05078c0.23341,1.1374 1.24545,2 2.44922,2h8c1.20377,0 2.21581,-0.8626 2.44922,-2h3.43555c-2.71079,2.86178 -4.38477,6.7158 -4.38477,10.96484c0,6.16611 3.49907,11.5222 8.62305,14.17969c2.19794,1.13975 4.69667,1.7832 7.3418,1.7832c8.81026,0 15.96289,-7.15263 15.96289,-15.96289c0,-4.24871 -1.6743,-8.10293 -4.38477,-10.96484h5.95703c0.18032,0.00255 0.34804,-0.09219 0.43894,-0.24794c0.0909,-0.15575 0.0909,-0.34838 0,-0.50413c-0.0909,-0.15575 -0.25863,-0.25049 -0.43894,-0.24794h-6.99609c-2.81361,-2.48138 -6.49611,-4 -10.53906,-4c-4.04276,0 -7.72505,1.51894 -10.53906,4h-4.42578v-3.5c0.00212,-0.13532 -0.0507,-0.26572 -0.1464,-0.36141c-0.0957,-0.0957 -0.22609,-0.14852 -0.36141,-0.1464c-0.13261,0.00207 -0.25896,0.05673 -0.35127,0.15197c-0.0923,0.09523 -0.14299,0.22324 -0.14092,0.35584v2.01563c-0.41973,-0.31883 -0.93536,-0.51562 -1.5,-0.51562h-0.5v-14.5c0.00212,-0.13532 -0.0507,-0.26572 -0.1464,-0.36141c-0.0957,-0.0957 -0.22609,-0.14852 -0.36141,-0.1464c-0.13261,0.00207 -0.25896,0.05673 -0.35127,0.15197c-0.0923,0.09523 -0.14299,0.22324 -0.14092,0.35584v14.5h-2v-7.5c0.00212,-0.13532 -0.0507,-0.26572 -0.1464,-0.36141c-0.0957,-0.0957 -0.22609,-0.14852 -0.36141,-0.1464c-0.13261,0.00207 -0.25896,0.05673 -0.35127,0.15197c-0.0923,0.09523 -0.14299,0.22324 -0.14092,0.35584v7.5h-2v-1.5c0.00212,-0.13532 -0.0507,-0.26572 -0.1464,-0.36141c-0.0957,-0.0957 -0.22609,-0.14852 -0.36141,-0.1464c-0.13261,0.00207 -0.25896,0.05673 -0.35127,0.15197c-0.0923,0.09523 -0.14299,0.22324 -0.14092,0.35584v1.5h-0.5c-1.20377,0 -2.21581,0.8626 -2.44922,2h-3.05078v-9c0,-2.80416 1.14909,-5.33101 3,-7.14453v11.64453c-0.00255,0.18032 0.09219,0.34804 0.24794,0.43894c0.15575,0.0909 0.34838,0.0909 0.50413,0c0.15575,-0.0909 0.25049,-0.25863 0.24794,-0.43894v-12.49414c0.61643,-0.46291 1.28406,-0.85994 2,-1.17187v11.66602c-0.00255,0.18032 0.09219,0.34804 0.24794,0.43894c0.15575,0.0909 0.34838,0.0909 0.50413,0c0.15575,-0.0909 0.25049,-0.25863 0.24794,-0.43894v-12.04297c0.64066,-0.20033 1.31048,-0.34007 2,-0.4082v6.45117c-0.00255,0.18032 0.09219,0.34804 0.24794,0.43894c0.15575,0.0909 0.34838,0.0909 0.50413,0c0.15575,-0.0909 0.25049,-0.25863 0.24794,-0.43894zM66.5,24c-0.27613,0.00003 -0.49997,0.22387 -0.5,0.5v8c0.00003,0.27613 0.22387,0.49997 0.5,0.5h8c0.27613,-0.00003 0.49997,-0.22387 0.5,-0.5v-8c-0.00003,-0.27613 -0.22387,-0.49997 -0.5,-0.5zM67,25h7v7h-7zM34.49219,28.99219c-0.13261,0.00207 -0.25896,0.05673 -0.35127,0.15197c-0.0923,0.09523 -0.14299,0.22324 -0.14092,0.35584v2c-0.00255,0.18032 0.09219,0.34804 0.24794,0.43894c0.15575,0.0909 0.34838,0.0909 0.50413,0c0.15575,-0.0909 0.25049,-0.25863 0.24794,-0.43894v-2c0.00212,-0.13532 -0.0507,-0.26572 -0.1464,-0.36141c-0.0957,-0.0957 -0.22609,-0.14852 -0.36141,-0.1464zM49.96484,35c8.27077,0 14.96289,6.69506 14.96289,14.96484c0,8.26974 -6.69315,14.96289 -14.96289,14.96289c-2.48288,0 -4.8208,-0.60362 -6.88086,-1.67187c-4.80202,-2.49051 -8.08398,-7.50313 -8.08398,-13.29102c0,-8.27081 6.69403,-14.96484 14.96484,-14.96484zM24.5,37h0.91992c0.05368,0.00882 0.10843,0.00882 0.16211,0h2.83789c0.05368,0.00882 0.10843,0.00882 0.16211,0h2.83789c0.05368,0.00882 0.10843,0.00882 0.16211,0h0.91797c0.81831,0 1.47022,0.63972 1.49609,1.45117c-0.00319,0.03247 -0.00319,0.06518 0,0.09766c-0.02587,0.81145 -0.67778,1.45117 -1.49609,1.45117h-8c-0.81831,0 -1.47022,-0.63972 -1.49609,-1.45117c0.00319,-0.03247 0.00319,-0.06518 0,-0.09766c0.02587,-0.81145 0.67778,-1.45117 1.49609,-1.45117zM50,39c-6.06922,0 -11,4.93078 -11,11c0,6.06922 4.93078,11 11,11c0.18032,0.00255 0.34804,-0.09219 0.43894,-0.24794c0.0909,-0.15575 0.0909,-0.34838 0,-0.50413c-0.0909,-0.15575 -0.25863,-0.25049 -0.43894,-0.24794c-5.52878,0 -10,-4.47122 -10,-10c0,-1.64221 0.40206,-3.18659 1.10156,-4.55273c0.14104,1.35208 0.95611,2.50941 2.11133,3.10938c0.54558,0.28251 1.16611,0.44336 1.82227,0.44336c2.18326,0 3.96484,-1.78159 3.96484,-3.96484c0,-2.04948 -1.5758,-3.72396 -3.57422,-3.92383c1.37125,-0.70621 2.92361,-1.11133 4.57422,-1.11133c4.35424,0 8.05108,2.77853 9.42773,6.6543c0.05564,0.17392 0.20166,0.30369 0.38091,0.33851c0.17925,0.03482 0.36324,-0.03083 0.47995,-0.17127c0.11671,-0.14044 0.14759,-0.33333 0.08055,-0.50318c-1.51535,-4.26624 -5.58938,-7.31836 -10.36914,-7.31836zM45.03516,42.07227c1.64274,0 2.96484,1.32015 2.96484,2.96289c0,1.64274 -1.3221,2.96484 -2.96484,2.96484c-0.49384,0 -0.9529,-0.11859 -1.36133,-0.33008c-0.95031,-0.49354 -1.60156,-1.48496 -1.60156,-2.63477c0,-1.64274 1.32015,-2.96289 2.96289,-2.96289zM60.36328,47.99414c-0.14112,0.00818 -0.27218,0.07571 -0.36076,0.18587c-0.08858,0.11016 -0.12639,0.25267 -0.10408,0.39225c0.04481,0.31369 0.0746,0.63108 0.08984,0.95313c0.01357,0.27607 0.24833,0.4889 0.52441,0.47542c0.27608,-0.01348 0.48898,-0.24817 0.47559,-0.52425c-0.01676,-0.35396 -0.05042,-0.70257 -0.09961,-1.04687c-0.03345,-0.2607 -0.26301,-0.451 -0.52539,-0.43555z"></path></g></g>
</svg>